<svg xmlns="http://www.w3.org/2000/svg" xmlns:xlink="http://www.w3.org/1999/xlink" xml:space="preserve" version="1.1" style="shape-rendering:geometricPrecision;text-rendering:geometricPrecision;image-rendering:optimizeQuality;" viewBox="0 0 8532 8758.75" x="0px" y="0px" fill-rule="evenodd" clip-rule="evenodd"><defs><style type="text/css">
   
    .fil0 {fill:black}
   
  </style></defs><g><g><path class="fil0" d="M13 6525l8507 -5 -8507 5zm2254 -1426l0 202 5040 4c79,0 147,30 200,88l928 1017 -8399 5 876 -1020c54,-62 124,-94 206,-94l695 0 0 -202 -530 0c-149,0 -271,-122 -271,-271l0 -3431c0,-174 142,-316 315,-316l3814 0c-23,93 -39,188 -47,286l-3640 0 -3 0c-61,0 -110,49 -110,110l0 3212 0 3c0,61 49,111 110,111l5548 0 3 0c61,0 110,-50 110,-111l0 -1250c113,-7 223,-23 330,-49l0 1435c0,149 -122,271 -272,271l-511 0 0 202 -455 0 0 -202 -3937 0zm4730 -5099c848,0 1535,687 1535,1535 0,848 -687,1535 -1535,1535 -583,0 -522,-1 -1116,187l-769 249 530 -611c480,-561 -180,-432 -180,-1360 0,-848 687,-1535 1535,-1535zm467 697l151 -117c34,-26 80,-30 110,0l36 36 114 115 36 35c30,30 26,76 0,110l-117 151c39,68 70,141 91,219l189 24c42,6 78,35 78,78l0 50 0 162 0 51c0,42 -36,72 -78,77l-189 25c-21,77 -52,150 -91,218l117 151c26,34 30,80 0,110l-36 36 -114 115 -36 35c-30,30 -76,26 -110,0l-151 -117c-68,40 -141,70 -219,91l-24 189c-5,43 -35,78 -78,78l-50 0 -162 0 -51 0c-42,0 -72,-35 -77,-78l-25 -189c-77,-21 -150,-51 -218,-91l-151 117c-34,26 -80,30 -110,0l-36 -35 -114 -115 -36 -36c-30,-30 -26,-76 0,-110l117 -151c-39,-68 -70,-141 -91,-218l-189 -25c-43,-5 -78,-35 -78,-77l0 -51 0 -162 0 -50c0,-43 35,-72 78,-78l189 -24c21,-78 52,-151 91,-219l-117 -151c-26,-34 -30,-80 0,-110l36 -35 114 -115 36 -36c30,-30 76,-26 110,0l151 117c68,-39 141,-70 218,-90l25 -190 0 -2 0 -2 1 -2 0 -2 0 -2 1 -2 0 -2 1 -1 0 -2 1 -2 1 -2 0 -2 1 -2 1 -1 0 -2 1 -2 1 -2 1 -1 1 -2 1 -2 0 0 0 -1 1 -2 1 -2 1 -1 1 -2 2 -1 1 -2 1 -1 1 -1 1 -2 1 -1 2 -2 0 0 1 -1 0 0 1 -1 0 0 1 -2 2 -1 1 -1 0 0 2 -1 1 -1 1 -1 2 -1c1,-1 2,-2 3,-2l0 0 2 -1 0 0 1 -1 2 -1 0 0 1 -1 0 0 2 0 0 0 2 -1 1 -1 0 0 2 0 0 0 2 -1 2 -1 0 0 1 0 0 0 2 -1 2 0 0 0 2 0 0 0c1,-1 2,-1 4,-1 1,0 2,0 3,0l2 0 0 0 2 -1 0 0 2 0 0 0 51 0 162 0 50 0c43,0 73,36 78,78l24 190c78,20 151,51 219,90zm-452 439c95,0 180,39 242,101 62,62 101,148 101,242 0,95 -39,181 -101,243 -62,62 -147,100 -242,100 -95,0 -181,-38 -243,-100 -62,-62 -100,-148 -100,-243 0,-94 38,-180 100,-242 62,-62 148,-101 243,-101zm127 216c-32,-33 -77,-53 -127,-53 -50,0 -95,20 -128,53 -32,32 -53,77 -53,127 0,50 21,95 53,128 33,33 78,53 128,53 50,0 95,-20 127,-53 33,-33 53,-78 53,-128 0,-50 -20,-95 -53,-127zm-127 -542c369,0 669,300 669,669 0,370 -300,669 -669,669 -370,0 -669,-299 -669,-669 0,-369 299,-669 669,-669zm-4103 3530l178 208 178 -208 -120 -1013 -110 0 -126 1013zm1415 -128c0,0 0,-412 -35,-685 -35,-272 -562,-382 -759,-458 -133,-52 -136,-167 -136,-167 -184,226 -429,228 -616,-1 0,0 15,109 -135,168 -197,76 -723,186 -758,458 -35,273 -35,685 -35,685l961 0 137 -901c7,-41 44,-55 85,-55l119 0c42,0 74,14 80,55l116 901 976 0zm-1754 -2062c0,244 45,379 190,614 113,145 221,210 327,202 106,8 214,-57 326,-202 145,-235 190,-370 190,-614 0,-705 -1033,-705 -1033,0zm1666 4857l-3836 -2c-227,-1 -436,-296 -395,-480l0 0 1 -2c2,1 5,2 7,2l0 0c11,4 22,6 34,6l4189 -3 4188 3c15,0 29,-3 41,-8 44,183 -166,481 -394,482l-3835 2zm-3464 -348l1237 0c50,0 91,37 91,83l0 0c0,46 -41,83 -91,83l-1237 0c-50,0 -91,-37 -91,-83l0 0c0,-46 41,-83 91,-83zm2836 -711l1268 0 146 285 -1573 0 159 -285z"/></g></g><text x="0" y="7022" fill="#000000" font-size="5px" font-weight="bold" font-family="'Helvetica Neue', Helvetica, Arial-Unicode, Arial, Sans-serif">Created by popcornarts</text><text x="0" y="7027" fill="#000000" font-size="5px" font-weight="bold" font-family="'Helvetica Neue', Helvetica, Arial-Unicode, Arial, Sans-serif">from the Noun Project</text></svg>